# xmcd
#
# Track frame offsets:
# 150
# 11401
# 25861
# 42203
# 54118
# 91003
# 104466
# 125737
# 145922
# 169261
#
# Disc length: 2439 seconds
#
#
# Revision: 0
# Processed by: cddbd v1.5.1PL0 Copyright (c) Steve Scherf et al.
# Submitted via: FreeRIP 2.51 
#
DISCID=7809850a
DTITLE=New Riders of the Purple Sage - NRPS
DYEAR=1900
DGENRE=
TTITLE0=I Don't Know You
TTITLE1=Whatcha Gonna Do
TTITLE2=Portland Woman
TTITLE3=Henry
TTITLE4=Dirty Business
TTITLE5=Glendale Train
TTITLE6=Garden of Eden
TTITLE7=All I Ever Wanted
TTITLE8=Last Lonely Eagle
TTITLE9=Louisiana Lady
EXTD=
EXTT0=
EXTT1=
EXTT2=
EXTT3=
EXTT4=
EXTT5=
EXTT6=
EXTT7=
EXTT8=
EXTT9=
PLAYORDER=
